<?xml version="1.0" encoding="UTF-8"?>
<svg id="Layer_1" data-name="Layer 1" xmlns="http://www.w3.org/2000/svg" xmlns:xlink="http://www.w3.org/1999/xlink" viewBox="0 0 300 300">
  <defs>
    <style>
      .cls-1 {
        fill: #fff;
      }

      .cls-2 {
        fill: none;
      }

      .cls-3 {
        fill: url(#radial-gradient);
      }
    </style>
    <radialGradient id="radial-gradient" cx="-25.26" cy="-42.77" fx="-25.26" fy="-42.77" r="435.59" gradientUnits="userSpaceOnUse">
      <stop offset="0" stop-color="#402a56"/>
      <stop offset="1" stop-color="#2f2e41"/>
    </radialGradient>
  </defs>
  <g>
    <rect class="cls-3" x="-.82" y="-.82" width="301.64" height="301.64"/>
    <rect class="cls-2" x="10.16" y="8.71" width="279.67" height="279.67" rx="18.61" ry="18.61"/>
  </g>
  <g>
    <g>
      <path class="cls-1" d="M224.47,111.2h-112.58c-5.33,0-12.78,7.25-15.15,11.9-11.19,22-16.89,53.21-27.14,76.28l-1.68,2.66v-121.67s-2.17-8.81,10.79-13.34h49.4l23.61,19.81h62.4s15.8,1.41,10.35,24.36Z"/>
      <path class="cls-1" d="M255.01,135.65s-.03.09-.04.13c-.06.16-.12.31-.17.46-.87,2.46-1.42,4.03-1.75,4.95h0c-.38,1.01-.74,1.96-1.05,2.84-7.85,22.43-18.19,55.56-28.31,76.06-1.76,3.58-5.01,7.07-9.36,7.07h-29.48v-20.3h13.53v-21.25h-13.53v-64.75h65.41s.59,0,1.4.25c2.53.72,7.24,3.54,3.35,14.54Z"/>
      <path class="cls-1" d="M251.05,120.86c.12,0,.34.09.61.25-.81-.24-1.4-.25-1.4-.25h.79Z"/>
      <path class="cls-1" d="M254.97,135.78c-.05.17-.1.34-.16.5-.51,1.61-1.1,3.19-1.66,4.66-.03.09-.07.17-.1.25.33-.92.88-2.49,1.75-4.95.05-.15.11-.3.17-.46Z"/>
      <path class="cls-1" d="M163.59,120.86l-44.89,64.79.44,21.22h48.32v20.29h-91.32c-2.31,0-4.53-3.6-4.33-6.16.31-3.98,5.99-17.41,7.69-22.36,7.14-20.78,15.8-48.4,24.97-67.8,1.37-2.9,5.97-9.97,9.35-9.97h49.77Z"/>
    </g>
    <polygon class="cls-1" points="169.14 185.52 144.49 185.52 144.49 183.59 169.14 147.84 169.14 185.52"/>
  </g>
</svg>